<?xml version="1.0" encoding="UTF-8" standalone="no"?>
<svg
   xmlns:dc="http://purl.org/dc/elements/1.1/"
   xmlns:cc="http://creativecommons.org/ns#"
   xmlns:rdf="http://www.w3.org/1999/02/22-rdf-syntax-ns#"
   xmlns:svg="http://www.w3.org/2000/svg"
   xmlns="http://www.w3.org/2000/svg"
   xmlns:xlink="http://www.w3.org/1999/xlink"
   xmlns:sodipodi="http://sodipodi.sourceforge.net/DTD/sodipodi-0.dtd"
   xmlns:inkscape="http://www.inkscape.org/namespaces/inkscape"
   version="1.1"
   width="550"
   height="550"
   id="svg66"
   sodipodi:docname="Logo.svg"
   inkscape:version="1.0 (6e3e5246a0, 2020-05-07)"
   inkscape:export-filename="/home/iago/Pictures/Projects/Father's companies/Cruz Representações/Logo-cf.png"
   inkscape:export-xdpi="142.65672"
   inkscape:export-ydpi="142.65672">
  <metadata
     id="metadata72">
    <rdf:RDF>
      <cc:Work
         rdf:about="">
        <dc:format>image/svg+xml</dc:format>
        <dc:type
           rdf:resource="http://purl.org/dc/dcmitype/StillImage" />
        <dc:title></dc:title>
      </cc:Work>
    </rdf:RDF>
  </metadata>
  <defs
     id="defs70">
    <inkscape:path-effect
       message="Use fill-rule evenodd on &lt;b&gt;fill and stroke&lt;/b&gt; dialog if no flatten result after convert clip to paths."
       hide_clip="false"
       flatten="false"
       inverse="true"
       lpeversion="1"
       is_visible="true"
       id="path-effect96"
       effect="powerclip" />
    <defs
       id="defs8">
      <linearGradient
         id="grad1">
        <stop
           id="stop2"
           stop-opacity="1.0000"
           stop-color="#e30016"
           offset="0%" />
        <stop
           id="stop4"
           stop-opacity="1.0000"
           stop-color="#000000"
           offset="100%" />
      </linearGradient>
      <linearGradient
         gradientTransform="matrix(1.2638249,0,0,0.79124886,-224.91549,-95.3726)"
         gradientUnits="userSpaceOnUse"
         y2="472.70538"
         x2="191.97804"
         y1="127.65604"
         x1="191.97804"
         id="grad2"
         xlink:href="#grad1" />
    </defs>
    <defs
       id="defs20">
      <linearGradient
         id="grad3">
        <stop
           id="stop12"
           stop-opacity="1.0000"
           stop-color="#f07c00"
           offset="3435993547.0000%" />
        <stop
           id="stop14"
           stop-opacity="1.0000"
           stop-color="#000000"
           offset="12.0000%" />
        <stop
           id="stop16"
           stop-opacity="1.0000"
           stop-color="#d6d6d6"
           offset="1581675980.0000%" />
      </linearGradient>
      <linearGradient
         gradientTransform="matrix(3.4898637,0,0,0.28654414,-127.24769,-95.3726)"
         gradientUnits="userSpaceOnUse"
         y2="1461.8365"
         x2="52.659618"
         y1="1311.755"
         x1="52.659618"
         id="grad4"
         xlink:href="#grad3" />
    </defs>
    <defs
       id="defs40">
      <linearGradient
         id="grad5">
        <stop
           id="stop34"
           stop-opacity="1.0000"
           stop-color="#e30016"
           offset="0%" />
        <stop
           id="stop36"
           stop-opacity="1.0000"
           stop-color="#000000"
           offset="100%" />
      </linearGradient>
      <linearGradient
         gradientUnits="userSpaceOnUse"
         gradientTransform="matrix(1.4081215,0,0,0.710166,-57.7673,-95.3726)"
         y2="720.2655"
         x2="39.324028"
         y1="207.86929"
         x1="41.024372"
         id="grad6"
         xlink:href="#grad5" />
    </defs>
    <clipPath
       id="clipPath92"
       clipPathUnits="userSpaceOnUse">
      <path
         sodipodi:nodetypes="ccccccccc"
         id="path94"
         d="m -19.106537,255.74836 88.171227,-2.01541 -1.780246,121.10829 633.745246,2.8343 2.7304,-404.336124 81.33671,-2.56337 -9.61705,487.806824 -814.18284,-6.58443 z"
         style="display:block;fill:none;stroke:#000000;stroke-width:1px;stroke-linecap:butt;stroke-linejoin:miter;stroke-opacity:1" />
    </clipPath>
  </defs>
  <sodipodi:namedview
     inkscape:document-rotation="0"
     pagecolor="#ffffff"
     bordercolor="#666666"
     borderopacity="1"
     objecttolerance="10"
     gridtolerance="10"
     guidetolerance="10"
     inkscape:pageopacity="0"
     inkscape:pageshadow="2"
     inkscape:window-width="1366"
     inkscape:window-height="704"
     id="namedview68"
     showgrid="false"
     inkscape:zoom="0.87931627"
     inkscape:cx="488.26039"
     inkscape:cy="278.31748"
     inkscape:window-x="0"
     inkscape:window-y="27"
     inkscape:window-maximized="1"
     inkscape:current-layer="svg66" />
  <g
     transform="translate(49.019793,129.82458)"
     id="g37">
    <path
       d="m 253.12211,63.461 h 59.0482 c 16.2815,0 29.6025,13.3216 29.6025,29.6026 v 2e-4 c 0,16.281 -13.3216,29.6025 -29.6025,29.6025 h -59.0482 z M 75.294207,278.0016 c -0.0576,-0.8136 -0.1151,-1.6268 -0.1726,-2.4403 61.511603,-6.1642 104.961803,-29.1757 128.606703,-70.6599 -22.962,-10.1507 -45.924,-20.3011 -68.8859,-30.4517 -10.0331,17.1279 -16.1872,37.147 -61.660903,36.2383 -42.3244,-0.846 -59.9058,-35.1424 -54.5287,-80.2897 3.0516,-40.6717 25.3302,-61.0039 54.8103,-61.3087 27.546403,-0.2847 47.437203,12.0026 61.379303,41.796 23.0604,-10.7418 46.1211,-21.4839 69.1816,-32.2257 -24.424,-39.709 -64.5892,-67.084 -137.771803,-68.5902 0,-1.4783 0,-2.9563 0,-4.4346 91.256403,0 172.294603,0 263.551003,0 76.7522,0 107.2974,46.0902 105.5593,86.9252 -1.4843,34.8691 -11.2393,65.4409 -59.8997,77.8773 25.7103,33.9126 50.7191,66.2579 76.4294,100.1704 2.5583,4.3234 4.1306,8.3485 -6.157,8.0292 -33.7769,-0.2784 -67.554,-0.5567 -101.3309,-0.8351 -3.8683,-0.2256 -7.3169,-2.0602 -10.1655,-6.1946 -17.5374,-28.0725 -35.0748,-56.1452 -52.6122,-84.2176 -1.8423,-2.7855 -5.818,-4.5902 -9.8632,-4.8791 -6.5828,0 -11.899,0 -18.4818,0 0,29.6618 0,55.1427 0,84.8045 0,9.6323 -1.9413,10.536 -14.1725,10.6863 -54.6051,0 -109.2099,0 -163.814903,0 z"
       style="fill:url(#grad2)"
       id="path10" />
    <g
       id="g38"
       transform="translate(-97.667803)">
      <path
         sodipodi:nodetypes="ccccccccscccccssssscccccccccsccccsccccccccsscssccccsccccccsccsssscccssscc"
         id="path24"
         style="fill:#cc9749;fill-rule:evenodd"
         d="m 237.28351,190.806 c -4.0957,7.1043 -8.2465,13.4321 -15.0946,19.1129 -14.3212,11.8805 -33.5819,14.3173 -51.5652,13.9577 -95.9989,-1.8483 -98.6738,-164.3573 0.3909,-164.207 29.2739,-0.3028 50.2533,12.1832 64.9507,35.7353 l 43.6074,-19.7441 c -0.1319,-0.1698 -0.264,-0.3397 -0.3969,-0.509 C 249.58511,37.3855 208.61191,20.7259 162.49401,19.7765 148.60441,19.49 145.83801,0 163.92061,0 h 263.5509 c 148.5145,0.0113 150.0715,146.3777 66.9425,177.441 22.0879,28.6503 43.8298,52.7064 65.6878,81.5378 5.0082,6.6069 13.4268,6.3007 20.7201,5.9225 6.413,-0.3324 15.0893,-0.9856 17.8261,9.9572 l -0.29854,11.23927 c -0.14698,5.53315 -6.7746,4.05934 -12.3097,4.06156 l -477.17996,0.1915 c -6.39681,0.003 -7.47518,-12.7648 -2.67371,-18.43817 4.97201,-5.87487 10.64694,-3.93132 18.79903,-5.11966 24.30829,-3.54343 101.34132,1.15605 154.95138,-57.13211 z m 124.9723,75.3046 h 51.7089 l -43.7755,-70.073 c -0.3814,-0.1573 -0.9183,-0.2801 -1.3052,-0.3359 h -6.6282 z m -239.55415,11.59795 c 0,0 23.82204,-3.48736 36.19467,-5.657 13.37186,-2.34487 43.5926,-7.38635 43.5926,-7.38635 36.2501,-7.7649 70.73768,-23.6089 91.34958,-57.0994 l -59.7493,-26.4128 c -4.7894,8.4714 -8.7929,16.3953 -16.7125,22.965 -12.8008,10.6192 -30.5756,12.5432 -46.6023,12.2229 -14.9958,-0.2997 -29.2384,-4.6887 -40.1835,-15.2835 -18.0841,-17.5057 -20.8317,-45.4267 -18.0216,-69.1381 1.7351,-22.9147 10.1507,-46.3756 31.3874,-57.9767 8.357,-4.5653 17.6507,-6.6383 27.1358,-6.7363 29.5364,-0.3055 48.6396,13.4841 61.7735,37.8756 l 62.051,-28.0948 c -1.8958,-2.8078 -3.8864,-5.5514 -5.9765,-8.2191 -31.0283,-39.6006 -76.5402,-52.0459 -125.0976,-53.0453 -5.8562,-0.1209 -5.9667,-11.9712 0.0777,-11.9712 h 263.5509 c 30.4846,0 62.4211,7.3054 84.8477,29.2229 8.4854,8.293 15.0572,18.2273 19.268,29.3247 3.9027,10.2855 5.6765,21.3163 5.2087,32.3066 -0.6085,14.2984 -2.6061,28.9804 -8.8407,42.0153 -9.7891,20.4661 -25.0269,30.8989 -45.844,37.1463 24.2805,31.9745 49.0586,61.5938 73.314,93.5874 3.9706,5.715 30.1997,6.2931 30.6999,6.2931 0,0 1.23698,7.49747 0.0635,8.40261 -1.17111,0.90332 -462.47526,-0.30479 -462.47526,-0.30479 m 230.80046,-8.09782 h 73.0466 L 376.12911,191.32 c -1.3304,-1.9669 -4.5666,-2.9661 -6.8421,-3.1556 h -14.5685 v 81.0359 c 0,1.4306 -0.0231,2.9524 -0.2047,4.4475 z m 10.1742,-193.226 h 41.8413 c 11.5367,0 20.9761,6.8903 20.9761,15.3117 v 0 c 0,8.4214 -9.4396,15.3117 -20.9761,15.3117 h -41.8413 z m -9.5796,-12.0925 h 48.4268 c 14.7383,0 31.8222,11.131 31.8222,24.7343 0,17.0178 -17.7929,24.7344 -31.8222,24.7344 h -48.4268 z" />
    </g>
    <path
       d="m 312.17031,63.461 c 0.2535,0 0.506,0.004 0.758,0.01 -0.252,-0.006 -0.5045,-0.01 -0.758,-0.01 z m 0.8919,0.0149 c 0.2033,0.006 0.4065,0.013 0.6088,0.0231 -0.2023,-0.0101 -0.4055,-0.0171 -0.6088,-0.0231 z m 1.003,0.048 c 0.1145,0.007 0.2296,0.0133 0.3439,0.0218 -0.114,-0.008 -0.2294,-0.0146 -0.3439,-0.0218 z m 0.7381,0.0565 c 0.1163,0.0103 0.2332,0.0193 0.3492,0.0311 -0.116,-0.0118 -0.2329,-0.0208 -0.3492,-0.0311 z m 0.7362,0.0749 c 0.1145,0.013 0.2296,0.0251 0.3437,0.0396 -0.1144,-0.0145 -0.2292,-0.0266 -0.3437,-0.0396 z m 0.7069,0.0896 c 0.1244,0.0174 0.2488,0.034 0.3729,0.0528 -0.1241,-0.0188 -0.2485,-0.0354 -0.3729,-0.0528 z m 0.7043,0.1068 c 0.1306,0.0214 0.2613,0.0422 0.3914,0.0653 -0.1301,-0.0231 -0.2608,-0.0439 -0.3914,-0.0653 z m 0.7195,0.1274 c 0.1304,0.0249 0.2611,0.049 0.3907,0.0754 -0.1299,-0.0264 -0.2603,-0.0505 -0.3907,-0.0754 z m 0.7236,0.147 c 0.1254,0.0271 0.2507,0.0535 0.3754,0.0821 -0.1247,-0.0286 -0.2503,-0.055 -0.3754,-0.0821 z m 0.7158,0.164 c 0.1208,0.0294 0.2422,0.0581 0.3625,0.089 -0.1203,-0.0307 -0.2417,-0.0596 -0.3625,-0.089 z m 0.7045,0.1802 c 0.1201,0.0324 0.2404,0.064 0.36,0.098 -0.1196,-0.034 -0.2399,-0.0656 -0.36,-0.098 z m 0.7027,0.1985 c 0.1126,0.0331 0.2251,0.0663 0.3369,0.1007 -0.1118,-0.0344 -0.2246,-0.0676 -0.3369,-0.1007 z m 0.7198,0.2231 c 0.099,0.0321 0.1982,0.0635 0.2967,0.0967 -0.0985,-0.0332 -0.1977,-0.0646 -0.2967,-0.0967 z m 0.6643,0.2241 c 0.1073,0.0377 0.2143,0.0751 0.3211,0.1138 -0.1068,-0.0387 -0.2138,-0.0761 -0.3211,-0.1138 z m 0.6597,0.2404 c 0.1096,0.0415 0.2191,0.0827 0.3279,0.1251 -0.1088,-0.0427 -0.2183,-0.0836 -0.3279,-0.1251 z m 0.6799,0.2663 c 0.101,0.0412 0.202,0.0822 0.3025,0.1244 -0.1005,-0.0422 -0.2015,-0.0832 -0.3025,-0.1244 z m 1.3195,0.5746 0.2819,0.1322 c -0.0937,-0.045 -0.1877,-0.0885 -0.2819,-0.1322 z m 17.1945,25.8837 c 0.0108,0.3263 0.0183,0.6537 0.0183,0.9826 v 2e-4 c 0,16.281 -13.3216,29.6025 -29.6025,29.6025 h -59.0482 V 65.1275 h -0.5709 v 59.2053 h 1.0078 v 2.5167 h 59.0482 c 16.281,0 29.6025,-13.3216 29.6025,-29.6025 v -3e-4 c 0,-1.7609 -0.1565,-3.4872 -0.4552,-5.1657 z M 75.294207,278.0016 c -0.0576,-0.8136 -0.1151,-1.6268 -0.1726,-2.4403 60.751903,-6.0881 103.883503,-28.6122 127.719003,-69.1334 l 0.3168,0.14 c -0.3153,0.553 -0.6356,1.1012 -0.9579,1.6476 l 1.9657,0.8691 c -21.8078,38.261 -60.4633,60.8082 -114.597803,68.917 z M 202.86851,206.3804 c 0.2889,-0.4909 0.5769,-0.9826 0.8598,-1.479 -0.2829,0.4962 -0.5714,0.9884 -0.8598,1.479 z m -131.475103,4.2493 c -0.1791,-0.008 -0.3565,-0.0178 -0.5349,-0.0266 0.1781,0.009 0.3558,0.0188 0.5349,0.0266 z m -1.7813,-0.0992 c -0.194,-0.0131 -0.3877,-0.0262 -0.5806,-0.0408 0.1929,0.0146 0.3866,0.0277 0.5806,0.0408 z m -1.9099,-0.1536 c -0.1314,-0.0123 -0.2643,-0.0226 -0.3952,-0.0356 0.1309,0.013 0.2638,0.0233 0.3952,0.0356 z m -2.0823,-0.2246 c -0.1261,-0.0155 -0.25,-0.0339 -0.3756,-0.0502 0.1256,0.0163 0.2495,0.0347 0.3756,0.0502 z m -1.6625,-0.2301 c -0.1811,-0.0271 -0.3613,-0.0558 -0.5412,-0.0844 0.1799,0.0286 0.3601,0.0573 0.5412,0.0844 z m -1.6815,-0.2769 c -0.1737,-0.0309 -0.3478,-0.0608 -0.5204,-0.0929 0.1724,0.0321 0.347,0.062 0.5204,0.0929 z m -3.643,-0.7602 c -0.1646,-0.0397 -0.3277,-0.0817 -0.4912,-0.1229 0.1635,0.0412 0.3266,0.0832 0.4912,0.1229 z m -1.5419,-0.3967 c -0.1794,-0.0488 -0.3588,-0.0975 -0.5369,-0.1478 0.1781,0.0503 0.3575,0.099 0.5369,0.1478 z m -1.6318,-0.4694 c -0.1317,-0.0399 -0.2648,-0.0781 -0.396,-0.119 0.1312,0.0409 0.2643,0.0791 0.396,0.119 z m -1.8233,-0.5861 c -0.1384,-0.0475 -0.2748,-0.0977 -0.4125,-0.1462 0.1377,0.0485 0.2741,0.0987 0.4125,0.1462 z m -1.422,-0.512 c -0.1779,-0.0666 -0.3545,-0.1347 -0.5311,-0.203 0.1766,0.0683 0.3532,0.1364 0.5311,0.203 z m -1.4441,-0.5671 c -0.1629,-0.0666 -0.3264,-0.1324 -0.488,-0.2005 0.1618,0.0681 0.3251,0.1339 0.488,0.2005 z m -1.7002,-0.7296 c -0.1123,-0.0507 -0.2239,-0.1027 -0.3357,-0.1545 0.1118,0.0518 0.2234,0.1038 0.3357,0.1545 z m -1.4183,-0.6693 c -0.1678,-0.0824 -0.3334,-0.1673 -0.4997,-0.2512 0.1663,0.0839 0.3319,0.1688 0.4997,0.2512 z m -1.316,-0.6728 c -0.1675,-0.0887 -0.3351,-0.1777 -0.5009,-0.2678 0.166,0.0901 0.3334,0.1791 0.5009,0.2678 z m -1.3413,-0.7374 c -0.142,-0.0809 -0.2852,-0.1601 -0.4261,-0.2422 0.1407,0.0821 0.2841,0.1613 0.4261,0.2422 z m -1.5844,-0.9409 c -0.1525,-0.095 -0.3022,-0.193 -0.4535,-0.2894 0.151,0.0964 0.301,0.1944 0.4535,0.2894 z m -1.1931,-0.7698 c -0.1701,-0.1131 -0.3389,-0.2276 -0.5073,-0.3427 0.1681,0.1151 0.3372,0.2296 0.5073,0.3427 z m -1.1916,-0.8203 c -0.1603,-0.1138 -0.3211,-0.2269 -0.4797,-0.3425 0.1586,0.1156 0.3194,0.2287 0.4797,0.3425 z m -1.3068,-0.9618 c -0.1977,-0.1507 -0.3936,-0.3035 -0.5884,-0.4572 0.195,0.1537 0.391,0.3065 0.5884,0.4572 z m -1.317,-1.0419 c -0.1605,-0.1319 -0.319,-0.2665 -0.4778,-0.4004 0.1588,0.1341 0.3173,0.2683 0.4778,0.4004 z m -1.0677,-0.9065 c -0.1626,-0.1419 -0.3244,-0.2841 -0.4849,-0.4281 0.1605,0.144 0.3223,0.2862 0.4849,0.4281 z m -1.0618,-0.9567 c -0.1517,-0.1409 -0.305,-0.2799 -0.455,-0.4228 0.1498,0.1429 0.3033,0.2819 0.455,0.4228 z m -1.3522,-1.3012 c -0.1598,-0.1605 -0.3163,-0.3248 -0.4741,-0.4876 0.1578,0.163 0.3143,0.3271 0.4741,0.4876 z m -0.9667,-1.0024 c -0.1603,-0.1706 -0.3191,-0.343 -0.4769,-0.5161 0.158,0.1731 0.3166,0.3455 0.4769,0.5161 z m -0.9382,-1.0298 c -0.1568,-0.1767 -0.3135,-0.353 -0.4678,-0.5322 0.1543,0.1792 0.311,0.3555 0.4678,0.5322 z m -0.9341,-1.0862 c -0.2686,-0.3213 -0.5331,-0.6469 -0.7942,-0.9758 0.2611,0.3291 0.5256,0.6542 0.7942,0.9758 z m -1.1906,-1.478 c -0.1596,-0.2065 -0.3166,-0.4158 -0.4731,-0.6251 0.1568,0.2095 0.3135,0.4186 0.4731,0.6251 z m -0.8266,-1.1027 c -0.1578,-0.2161 -0.3146,-0.4327 -0.4693,-0.6515 0.1547,0.2188 0.3115,0.4354 0.4693,0.6515 z m -0.7924,-1.1173 c -0.3769,-0.5459 -0.7465,-1.0989 -1.1047,-1.6622 0.3582,0.5633 0.7278,1.1163 1.1047,1.6622 z m -1.1281,-1.6981 c -0.156,-0.2457 -0.308,-0.4952 -0.4605,-0.7445 0.1525,0.2493 0.3045,0.4988 0.4605,0.7445 z m -0.7306,-1.1879 c -0.1505,-0.251 -0.2985,-0.504 -0.4455,-0.7582 0.147,0.254 0.295,0.5072 0.4455,0.7582 z m -0.6947,-1.1957 c -0.148,-0.2615 -0.2957,-0.523 -0.4399,-0.7878 0.1445,0.2648 0.2919,0.5263 0.4399,0.7878 z m -0.6128,-1.1119 c -0.2894,-0.5397 -0.5708,-1.0862 -0.8454,-1.6391 0.2744,0.5529 0.556,1.0994 0.8454,1.6391 z m -1.0296,-2.009 c -0.1389,-0.2849 -0.2743,-0.5731 -0.4095,-0.8615 0.1349,0.2884 0.2706,0.5766 0.4095,0.8615 z m -0.5977,-1.267 c -0.1356,-0.2954 -0.27,-0.5924 -0.4014,-0.8914 0.1314,0.2992 0.2658,0.5957 0.4014,0.8914 z m -0.5474,-1.2298 c -0.4414,-1.0198 -0.8588,-2.0599 -1.2527,-3.1194 0.3939,1.0595 0.8115,2.0996 1.2527,3.1194 z m -1.3758,-3.4506 c -0.1199,-0.3273 -0.2369,-0.657 -0.3523,-0.9881 0.1154,0.3311 0.2324,0.6608 0.3523,0.9881 z m -0.4736,-1.3408 c -0.3934,-1.15 -0.7603,-2.3213 -1.1004,-3.5134 0.3401,1.1924 0.707,2.3634 1.1004,3.5134 z m -1.1263,-3.6021 c -0.1055,-0.3716 -0.207,-0.7462 -0.3073,-1.1215 0.1003,0.3753 0.2018,0.7499 0.3073,1.1215 z m -0.3884,-1.4275 c -0.0973,-0.3704 -0.1925,-0.7417 -0.2847,-1.1158 0.0922,0.3739 0.1874,0.7454 0.2847,1.1158 z m -0.3387,-1.3392 c -0.296,-1.2152 -0.5648,-2.4506 -0.8083,-3.7045 0.2435,1.2542 0.5126,2.4893 0.8083,3.7045 z m -0.857,-3.9557 c -0.0749,-0.3917 -0.1467,-0.7857 -0.2166,-1.1809 0.0696,0.3955 0.142,0.7892 0.2166,1.1809 z m -0.2673,-1.4741 c -1.6941,-9.8032 -1.8351,-20.7106 -0.45,-32.3415 3.0516,-40.6717 25.3302,-61.0039 54.8103,-61.3087 27.546403,-0.2847 47.437203,12.0026 61.379303,41.796 l 67.9334,-31.6443 c 0.2261,0.3615 0.4537,0.7215 0.6773,1.0851 l -0.4434,0.2065 c 0.4892,0.7658 0.9743,1.5348 1.4512,2.3102 -23.0605,10.7418 -46.1212,21.4839 -69.1816,32.2257 -13.9421,-29.7935 -33.8329,-42.0807 -61.379303,-41.796 -29.4801,0.3047 -51.7587,20.6369 -54.8103,61.3086 -1.009,8.4711 -1.2092,16.5604 -0.5899,24.1185 0.1724,1.3662 0.3739,2.7131 0.603,4.0399 z M 192.98121,62.9812 c -0.0749,-0.0927 -0.148,-0.1867 -0.2229,-0.2792 0.0749,0.0925 0.148,0.1865 0.2229,0.2792 z m -1.1359,-1.3871 c -0.1575,-0.1902 -0.3131,-0.3824 -0.4718,-0.5719 0.1587,0.1895 0.3143,0.3817 0.4718,0.5719 z m -1.5868,-1.8823 c -0.0953,-0.1108 -0.1887,-0.2231 -0.2842,-0.3337 0.0955,0.1106 0.1889,0.2229 0.2842,0.3337 z m -1.4502,-1.6605 c -0.0902,-0.1015 -0.1784,-0.2042 -0.2686,-0.3055 0.0902,0.1013 0.1784,0.204 0.2686,0.3055 z M 66.689207,10.0813 c -0.1465,-0.003 -0.2902,-0.008 -0.437,-0.0116 0,-1.4783 0,-2.9563 0,-4.4346 91.256403,0 172.294603,0 263.551003,0 76.7522,0 107.2974,46.0902 105.5593,86.9252 -0.5105,11.9938 -1.9999,23.479 -5.7142,33.893 3.297,-9.9678 4.66,-20.8689 5.1434,-32.2265 0.4334,-10.1826 -1.1414,-20.6915 -4.9387,-30.7316 -12.2086,-29.1334 -43.6059,-53.677 -99.6129,-53.677 -91.2564,0 -172.2946,0 -263.550903,0 z M 420.61261,143.4905 c -0.0573,0.0761 -0.1133,0.1527 -0.1711,0.2286 z m -45.1498,26.9471 c 25.7103,33.9126 50.7191,66.2579 76.4294,100.1704 1.4858,2.5109 2.6382,4.9211 1.3288,6.4381 -0.003,-0.2761 -0.0412,-0.5643 -0.1076,-0.8628 -0.2406,-0.4572 -0.5067,-0.9228 -0.7843,-1.3921 -25.7103,-33.9126 -50.7191,-66.2579 -76.4294,-100.1704 0.2532,-0.0648 0.4992,-0.1329 0.7504,-0.1988 l -1.7581,-2.3179 c 0.5158,-0.1319 1.0208,-0.2686 1.5278,-0.4045 z m -122.1812,13.7396 v 83.1381 c 0,3.3643 -0.2377,5.6629 -1.067,7.2375 l 0.0691,-0.1357 c 0.3205,-1.4012 0.4271,-3.1784 0.4271,-5.4353 0,-29.6619 0,-55.1428 0,-84.8046 z m -1.0766,90.3932 c -0.0462,0.0871 -0.0942,0.1721 -0.1442,0.255 0.05,-0.0827 0.098,-0.1679 0.1442,-0.255 z m -0.1477,0.2605 c -0.0261,0.0432 -0.053,0.0857 -0.0802,0.1276 0.0274,-0.0419 0.0541,-0.0844 0.0802,-0.1276 z m -0.0832,0.1324 c -0.053,0.0817 -0.1083,0.1611 -0.1653,0.2384 0.0573,-0.0773 0.1123,-0.1567 0.1653,-0.2384 z m -0.1723,0.248 c -0.0292,0.0392 -0.0591,0.0779 -0.0892,0.1161 0.0304,-0.0382 0.06,-0.0769 0.0892,-0.1161 z m -0.093,0.1208 c -0.0578,0.0729 -0.1181,0.1437 -0.1799,0.2126 0.0618,-0.0691 0.1219,-0.1397 0.1799,-0.2126 z m -0.3045,0.3457 c -0.0598,0.0616 -0.1218,0.1211 -0.1851,0.1794 0.0635,-0.058 0.1253,-0.1178 0.1851,-0.1794 z m -0.3321,0.3088 c -0.0691,0.0583 -0.1405,0.1148 -0.2136,0.1696 0.0734,-0.055 0.1445,-0.1113 0.2136,-0.1696 z m -0.2249,0.1781 c -0.1143,0.0852 -0.2339,0.1666 -0.3588,0.2442 0.1249,-0.0776 0.2442,-0.159 0.3588,-0.2442 z m -0.3944,0.2661 c -0.1219,0.0744 -0.249,0.1452 -0.3812,0.2128 0.1319,-0.0676 0.2593,-0.1384 0.3812,-0.2128 z m -0.5724,0.3065 c -0.0816,0.0385 -0.1653,0.0751 -0.2507,0.1113 0.0854,-0.0362 0.1691,-0.0728 0.2507,-0.1113 z m -0.3276,0.1432 c -0.1362,0.0556 -0.2771,0.1086 -0.4228,0.1586 0.1457,-0.05 0.2866,-0.103 0.4228,-0.1586 z"
       style="fill:#ee7254;fill-rule:evenodd"
       id="path28" />
    <path
       d="m 341.77281,93.0638 c 0,0.2533 -0.004,0.5058 -0.01,0.7575 0.006,-0.2517 0.01,-0.5042 0.01,-0.7575 z m -0.01,0.7643 c -0.006,0.2462 -0.0156,0.4919 -0.0282,0.7366 0.0123,-0.2447 0.0219,-0.4904 0.0282,-0.7366 z m -0.0297,0.768 c -0.0123,0.2362 -0.0271,0.4716 -0.0449,0.7065 0.0178,-0.2346 0.0326,-0.4703 0.0449,-0.7065 z m -0.0497,0.7671 c -0.0174,0.2238 -0.0375,0.4469 -0.0598,0.6695 0.0223,-0.2226 0.0424,-0.4457 0.0598,-0.6695 z m -0.0691,0.7597 c -0.0221,0.2133 -0.0467,0.4259 -0.0736,0.6377 0.0266,-0.2121 0.0515,-0.4244 0.0736,-0.6377 z m -0.0887,0.7568 c -0.0269,0.206 -0.056,0.4112 -0.0869,0.6158 0.0311,-0.2046 0.06,-0.4101 0.0869,-0.6158 z m -0.106,0.7391 c -0.0312,0.199 -0.0641,0.3975 -0.0993,0.595 0.0352,-0.1978 0.0681,-0.396 0.0993,-0.595 z m -0.1267,0.747 c -0.0326,0.1788 -0.0673,0.3575 -0.1032,0.5354 0.0359,-0.1779 0.0706,-0.3563 0.1032,-0.5354 z m -0.1504,0.7632 c -0.0332,0.1573 -0.0674,0.3138 -0.1031,0.4703 0.0355,-0.1565 0.0699,-0.313 0.1031,-0.4703 z m -0.1623,0.7256 c -0.0355,0.1495 -0.0719,0.2985 -0.1096,0.447 0.0377,-0.1485 0.0741,-0.2975 0.1096,-0.447 z m -0.188,0.7477 c -0.0339,0.1279 -0.0686,0.2555 -0.1042,0.3829 0.0354,-0.1271 0.0703,-0.2548 0.1042,-0.3829 z m -0.2052,0.7344 c -0.0297,0.1012 -0.0596,0.2022 -0.0905,0.303 0.0309,-0.1008 0.0608,-0.2018 0.0905,-0.303 z m -0.692,2.072 c -4.218,11.2197 -15.0782,19.2576 -27.7247,19.2576 h -59.0482 V 65.1275 h -0.5709 v 59.2053 h 59.0483 c 13.2643,0 24.5634,-8.8429 28.2955,-20.9241 z m -264.660603,173.7472 -0.1128,-1.5946 C 135.87351,269.4732 179.00511,246.9491 202.84061,206.4279 l 0.3168,0.14 c -23.5569,41.3297 -66.7744,64.3218 -127.923003,70.588 z M 202.86851,206.3804 c 0.2889,-0.4909 0.5769,-0.9826 0.8598,-1.479 -0.2829,0.4962 -0.5714,0.9884 -0.8598,1.479 z M 20.610207,116.4137 c 0.045,-0.2121 0.0905,-0.4231 0.1367,-0.6339 -0.0462,0.2105 -0.0917,0.4218 -0.1367,0.6339 z m 0.3473,-1.569 c 0.0613,-0.2658 0.1238,-0.5309 0.1869,-0.7942 -0.0633,0.2636 -0.1256,0.5284 -0.1869,0.7942 z m 0.3688,-1.5361 c 0.0841,-0.3379 0.1701,-0.6738 0.2577,-1.008 -0.0874,0.3342 -0.1733,0.6701 -0.2577,1.008 z m 0.3899,-1.5055 c 0.1002,-0.3733 0.2028,-0.7439 0.307,-1.1124 -0.1042,0.3683 -0.2068,0.7391 -0.307,1.1124 z m 0.4145,-1.4873 c 0.1216,-0.4216 0.246,-0.8399 0.3731,-1.255 -0.1271,0.4151 -0.2512,0.8334 -0.3731,1.255 z m 0.4739,-1.5803 c 8.1575,-26.2379 27.1846,-39.4012 50.8585,-39.6459 27.546403,-0.2847 47.437203,12.0026 61.379303,41.796 l 67.9334,-31.6443 c 0.2261,0.3615 0.4537,0.7215 0.6773,1.0851 -23.0604,10.7418 -46.1211,21.4839 -69.1815,32.2257 -13.9422,-29.7935 -33.8329,-42.0807 -61.379303,-41.796 -22.7718,0.2354 -41.2435,12.4241 -49.8789,36.7028 -0.1392,0.4219 -0.2754,0.8475 -0.4088,1.2766 z M 66.252207,7.3016 V 5.6351 c 91.256403,0 172.294603,0 263.551003,0 76.7522,0 107.2974,46.0902 105.5593,86.9252 -0.5105,11.9938 -1.9999,23.479 -5.7142,33.893 3.297,-9.9678 4.66,-20.8689 5.1434,-32.2265 1.7381,-40.835 -28.8071,-86.9252 -105.5593,-86.9252 z M 420.61261,143.4905 c -0.0573,0.0761 -0.1133,0.1527 -0.1711,0.2286 z m -45.1498,26.9471 c 25.7103,33.9126 50.7191,66.2579 76.4294,100.1704 1.4858,2.5109 2.6382,4.9211 1.3288,6.4381 -0.0176,-1.3723 -0.8799,-3.0481 -1.8997,-4.7716 -25.7102,-33.9125 -50.7191,-66.2579 -76.4293,-100.1704 0.5158,-0.1319 1.0208,-0.2686 1.5278,-0.4045 z m -122.1812,13.7396 v 83.1381 c 0,3.3643 -0.2377,5.6629 -1.067,7.2375 l 0.0691,-0.1357 c 0.3205,-1.4012 0.4271,-3.1784 0.4271,-5.4353 0,-29.6619 0,-55.1428 0,-84.8046 z m -1.0766,90.3932 c -0.0462,0.0871 -0.0942,0.1721 -0.1442,0.255 0.05,-0.0827 0.098,-0.1679 0.1442,-0.255 z m -0.1477,0.2605 c -0.0261,0.0432 -0.053,0.0857 -0.0802,0.1276 0.0274,-0.0419 0.0541,-0.0844 0.0802,-0.1276 z m -0.0832,0.1324 c -0.053,0.0817 -0.1083,0.1611 -0.1653,0.2384 0.0573,-0.0773 0.1123,-0.1567 0.1653,-0.2384 z m -0.1723,0.248 c -0.0292,0.0392 -0.0591,0.0779 -0.0892,0.1161 0.0304,-0.0382 0.06,-0.0769 0.0892,-0.1161 z m -0.093,0.1208 c -0.0578,0.0729 -0.1181,0.1437 -0.1799,0.2126 0.0618,-0.0691 0.1219,-0.1397 0.1799,-0.2126 z m -0.3045,0.3457 c -0.0598,0.0616 -0.1218,0.1211 -0.1851,0.1794 0.0635,-0.058 0.1253,-0.1178 0.1851,-0.1794 z m -0.3321,0.3088 c -0.0691,0.0583 -0.1405,0.1148 -0.2136,0.1696 0.0734,-0.055 0.1445,-0.1113 0.2136,-0.1696 z m -0.2249,0.1781 c -0.1143,0.0852 -0.2339,0.1666 -0.3588,0.2442 0.1249,-0.0776 0.2442,-0.159 0.3588,-0.2442 z m -0.3944,0.2661 c -0.1219,0.0744 -0.249,0.1452 -0.3812,0.2128 0.1319,-0.0676 0.2593,-0.1384 0.3812,-0.2128 z m -0.5724,0.3065 c -0.0816,0.0385 -0.1653,0.0751 -0.2507,0.1113 0.0854,-0.0362 0.1691,-0.0728 0.2507,-0.1113 z m -0.3276,0.1432 c -0.1362,0.0556 -0.2771,0.1086 -0.4228,0.1586 0.1457,-0.05 0.2866,-0.103 0.4228,-0.1586 z"
       style="fill:#ae0b14;fill-rule:evenodd"
       id="path30" />
    <path
       d="m 253.12211,63.461 h 59.0482 c 16.2815,0 29.6025,13.3216 29.6025,29.6026 v 2e-4 c 0,3.6337 -0.6653,7.1192 -1.8773,10.3429 -3.7314,12.0822 -15.031,20.9261 -28.296,20.9261 h -59.0483 V 65.1275 h 0.5709 z M 75.234407,277.1559 c 61.148603,-6.2662 104.366103,-29.2583 127.923003,-70.588 l -0.3168,-0.14 c 0.298,-0.5067 0.5957,-1.0142 0.8877,-1.5265 -22.962,-10.1507 -45.924,-20.3011 -68.8859,-30.4517 -10.0331,17.1279 -16.1872,37.147 -61.660903,36.2383 -42.3244,-0.846 -59.9058,-35.1424 -54.5287,-80.2897 0.6412,-8.5445 2.1338,-16.1873 4.3606,-22.9394 8.6354,-24.2787 27.1071,-36.4674 49.8789,-36.7028 27.546403,-0.2847 47.437103,12.0025 61.379303,41.796 23.0604,-10.7418 46.1211,-21.4839 69.1815,-32.2257 -0.2236,-0.3636 -0.4512,-0.7236 -0.6773,-1.0851 l 1.2482,-0.5814 C 179.60001,38.9509 139.43481,11.5759 66.252207,10.0697 V 7.3016 H 329.23241 c 76.7522,0 107.2974,46.0902 105.5593,86.9252 -0.4834,11.3579 -1.8464,22.259 -5.1434,32.2267 -7.0843,19.8617 -22.2628,35.8255 -54.1855,43.9841 l 0.957,1.262 c -0.507,0.1359 -1.012,0.2726 -1.5278,0.4045 25.7102,33.9125 50.7191,66.2579 76.4293,100.1704 1.0198,1.7235 1.8821,3.3993 1.8997,4.7716 -0.9452,1.0952 -3.173,1.725 -7.4858,1.5911 -33.7769,-0.2784 -67.554,-0.5567 -101.3309,-0.8351 -3.8683,-0.2256 -7.3169,-2.0602 -10.1655,-6.1946 -17.5374,-28.0725 -35.0748,-56.1452 -52.6122,-84.2176 -1.8423,-2.7855 -5.818,-4.5902 -9.8632,-4.8791 -6.5828,0 -11.899,0 -18.4818,0 v 1.6664 h -0.5708 c 0,29.6618 0,55.1427 0,84.8046 0,2.2569 -0.1066,4.0341 -0.4271,5.4353 -1.5057,3.0561 -5.0945,3.4852 -13.1746,3.5845 -54.6051,0 -109.2099,0 -163.814903,0 z"
       style="fill:none"
       id="path32" />
  </g>
</svg>
